<?xml version="1.0" standalone="no"?><!DOCTYPE svg PUBLIC "-//W3C//DTD SVG 1.1//EN" "http://www.w3.org/Graphics/SVG/1.1/DTD/svg11.dtd"><svg t="1730810192073" class="icon" viewBox="0 0 1024 1024" version="1.1" xmlns="http://www.w3.org/2000/svg" p-id="1857" width="64" height="64" xmlns:xlink="http://www.w3.org/1999/xlink"><path d="M368.6144 386.56H66.69824c-16.95744 0-30.72-13.76768-30.72-30.72s13.76256-30.72 30.72-30.72h320.59392l75.42784-248.10496a30.73024 30.73024 0 0 1 38.3232-20.45952 30.73024 30.73024 0 0 1 20.4544 38.32832L451.5072 325.12h234.5984l75.42784-248.10496a30.73024 30.73024 0 0 1 38.3232-20.45952 30.73536 30.73536 0 0 1 20.46464 38.32832L750.33088 325.12h206.97088c16.95744 0 30.72 13.76768 30.72 30.72s-13.76256 30.72-30.72 30.72H731.648l-76.2624 250.88h301.91616c16.95744 0 30.72 13.76768 30.72 30.72s-13.76256 30.72-30.72 30.72h-320.59392l-75.42784 248.10496a30.73024 30.73024 0 0 1-38.3232 20.45952 30.73024 30.73024 0 0 1-20.4544-38.32832l69.9904-230.23616h-234.5984l-75.42784 248.10496a30.73024 30.73024 0 0 1-38.3232 20.45952 30.73536 30.73536 0 0 1-20.46464-38.32832l69.9904-230.23616H66.69824c-16.95744 0-30.72-13.76768-30.72-30.72s13.76256-30.72 30.72-30.72H292.352l76.2624-250.88z m298.81856 0h-234.5984l-76.26752 250.88h234.5984l76.26752-250.88z" p-id="1858" fill="#481349"></path></svg>